<svg
      width="20"
      height="21"
      viewBox="0 0 20 21"
      fill="none"
      xmlns="http://www.w3.org/2000/svg"
    >
      <g clipPath="url(#clip0_1313_343)">
        <path
          d="M10.0006 4.33362C7.33389 4.33362 5.6678 5.66643 5.00061 8.33315C6.0003 7.00018 7.16733 6.50034 8.5003 6.83362C9.26139 7.02331 9.8053 7.57518 10.4076 8.18674C11.388 9.18159 12.5226 10.3333 15.0006 10.3333C17.6672 10.3333 19.3334 9.00034 20.0006 6.33299C19.0008 7.66674 17.8339 8.16659 16.5008 7.83331C15.7398 7.64346 15.1965 7.09174 14.5934 6.48018C13.6137 5.48534 12.4794 4.33362 10.0006 4.33362ZM5.00061 10.3333C2.33405 10.3333 0.667798 11.6663 0.000610352 14.3336C1.0003 12.9999 2.16717 12.5 3.5003 12.8333C4.26139 13.0231 4.8053 13.5749 5.40764 14.1864C6.38795 15.1813 7.52264 16.333 10.0006 16.333C12.6672 16.333 14.3334 15.0002 15.0006 12.3335C14.0008 13.6664 12.8339 14.1663 11.5008 13.833C10.7398 13.6433 10.1965 13.0914 9.59342 12.4799C8.61374 11.485 7.47936 10.3333 5.00061 10.3333Z"
          fill="#38B2AC"
        />
      </g>
      <defs>
        <clipPath id="clip0_1313_343">
          <rect
            width="20"
            height="20"
            fill="white"
            transform="translate(0 0.333252)"
          />
        </clipPath>
      </defs>
    </svg>