<!--?xml version="1.0" standalone="no"?-->
              <svg id="sw-js-blob-svg" viewBox="0 0 100 100" xmlns="http://www.w3.org/2000/svg" version="1.1">
                    <defs> 
                        <linearGradient id="sw-gradient" x1="0" x2="1" y1="1" y2="0">
                            <stop id="stop1" stopColor="rgba(128.22, 162.653, 255, 1)" offset="0%"></stop>
                            <stop id="stop2" stopColor="rgba(102.604, 229.066, 235.837, 1)" offset="100%"></stop>
                        </linearGradient>
                    </defs>
                <path fill="url(#sw-gradient)" d="M20.9,-35.5C27.1,-32.7,31.9,-27,32.2,-20.6C32.5,-14.2,28.3,-7.1,26.9,-0.8C25.5,5.5,27.1,11,27.1,18C27.2,25,25.7,33.4,20.9,35.5C16.1,37.6,8.1,33.3,1.9,29.9C-4.2,26.6,-8.4,24.2,-15,23.1C-21.5,22.1,-30.5,22.5,-36.3,18.8C-42.1,15.2,-44.7,7.6,-42.8,1.1C-40.8,-5.3,-34.3,-10.7,-28.6,-14.4C-22.9,-18.2,-17.9,-20.4,-13.3,-24C-8.7,-27.7,-4.3,-32.9,1.5,-35.5C7.4,-38.2,14.8,-38.3,20.9,-35.5Z" width="100%" height="100%" transform="translate(50 50)" style="transition: all 0.3s ease 0s;" stroke-width="0" stroke="url(#sw-gradient)"></path>
              </svg>