<!--?xml version="1.0" standalone="no"?-->
              <svg id="sw-js-blob-svg" viewBox="0 0 100 100" xmlns="http://www.w3.org/2000/svg" version="1.1">
                    <defs> 
                        <linearGradient id="sw-gradient" x1="0" x2="1" y1="1" y2="0">
                            <stop id="stop1" stopColor="rgba(248, 117, 55, 1)" offset="0%"></stop>
                            <stop id="stop2" stopColor="rgba(251, 168, 31, 1)" offset="100%"></stop>
                        </linearGradient>
                    </defs>
                <path fill="url(#sw-gradient)" d="M12.7,-18.5C17.2,-16.9,22,-14.6,24.3,-10.8C26.5,-7,26.1,-1.6,26.8,4.9C27.5,11.4,29.3,19.2,27.2,26.1C25.1,33,19.2,39,12.8,38.6C6.4,38.2,-0.4,31.4,-7.3,28C-14.3,24.6,-21.3,24.6,-26.5,21.4C-31.7,18.2,-35.1,11.9,-34.4,6C-33.6,0.1,-28.7,-5.4,-24.6,-9.8C-20.4,-14.3,-16.9,-17.6,-13,-19.4C-9,-21.2,-4.5,-21.4,-0.2,-21.1C4.1,-20.8,8.2,-20,12.7,-18.5Z" width="100%" height="100%" transform="translate(50 50)" style="transition: all 0.3s ease 0s;" stroke-width="0" stroke="url(#sw-gradient)"></path>
              </svg>